<?xml version="1.0" encoding="utf-8"?>
<!-- Generator: Adobe Illustrator 21.1.0, SVG Export Plug-In . SVG Version: 6.00 Build 0)  -->
<svg version="1.1" id="Layer_1" xmlns="http://www.w3.org/2000/svg" xmlns:xlink="http://www.w3.org/1999/xlink" x="0px" y="0px"
	 viewBox="0 0 23 26.2" style="enable-background:new 0 0 23 26.2;" xml:space="preserve">
<style type="text/css">
	.st0{fill:#FFFFFF;}
</style>
<title>replay</title>
<path class="st0" d="M21.5,9l-2.6,1.5c1.1,2,1.4,4.3,0.8,6.5c-0.6,2.2-2,4-4,5.2c-2,1.1-4.3,1.4-6.4,0.8c-2.2-0.6-4-2-5.2-4
	s-1.4-4.3-0.8-6.5c0.6-2.2,2-4,4-5.2c0.9-0.5,1.8-0.8,2.8-1v3l7-4.7l-7-4.7v3.3C8.6,3.5,7.1,4,5.8,4.8c-2.7,1.5-4.6,4-5.4,7
	c-0.8,3-0.4,6.1,1.1,8.7c1.5,2.7,4,4.6,7,5.4c1,0.3,2,0.4,3,0.4c2,0,4-0.5,5.7-1.5C22.8,21.5,24.6,14.5,21.5,9z"/>
</svg>
